<svg xmlns="http://www.w3.org/2000/svg" xmlns:xlink="http://www.w3.org/1999/xlink" width="500" zoomAndPan="magnify" viewBox="0 0 375 374.999991" height="500" preserveAspectRatio="xMidYMid meet" version="1.0"><defs><g/><clipPath id="4a770b094c"><path d="M 91.03125 91 L 284 91 L 284 284 L 91.03125 284 Z M 91.03125 91 " clip-rule="nonzero"/></clipPath><clipPath id="bc55462d98"><path d="M 187.5 283.96875 C 161.742188 283.96875 137.492188 273.945312 119.292969 255.707031 C 101.054688 237.507812 91.03125 213.257812 91.03125 187.5 C 91.03125 161.742188 101.054688 137.492188 119.292969 119.292969 C 137.492188 101.054688 161.742188 91.03125 187.5 91.03125 C 213.257812 91.03125 237.507812 101.054688 255.707031 119.292969 C 273.945312 137.53125 283.96875 161.742188 283.96875 187.5 C 283.96875 213.257812 273.945312 237.507812 255.707031 255.707031 C 237.507812 273.945312 213.257812 283.96875 187.5 283.96875 Z M 187.5 96.8125 C 163.285156 96.8125 140.5 106.261719 123.378906 123.378906 C 106.261719 140.5 96.8125 163.285156 96.8125 187.5 C 96.8125 211.714844 106.261719 234.5 123.378906 251.621094 C 140.5 268.738281 163.285156 278.1875 187.5 278.1875 C 211.714844 278.1875 234.5 268.738281 251.621094 251.621094 C 268.738281 234.5 278.1875 211.714844 278.1875 187.5 C 278.1875 163.285156 268.738281 140.5 251.621094 123.378906 C 234.5 106.261719 211.714844 96.8125 187.5 96.8125 Z M 187.5 96.8125 " clip-rule="nonzero"/></clipPath><clipPath id="ef8f97dada"><path d="M 137.292969 129.496094 L 237.785156 129.496094 L 237.785156 231.496094 L 137.292969 231.496094 Z M 137.292969 129.496094 " clip-rule="nonzero"/></clipPath></defs><g clip-path="url(#4a770b094c)"><g clip-path="url(#bc55462d98)"><path fill="#000000" d="M 91.03125 91.03125 L 283.816406 91.03125 L 283.816406 283.816406 L 91.03125 283.816406 Z M 91.03125 91.03125 " fill-opacity="1" fill-rule="nonzero"/></g></g><g clip-path="url(#ef8f97dada)"><path fill="#000000" d="M 222.984375 231.496094 L 152.089844 231.496094 C 147.210938 231.496094 142.652344 229.105469 139.890625 225.09375 C 137.128906 221.078125 136.53125 215.976562 138.289062 211.4375 L 140.253906 206.425781 C 142.441406 200.90625 146.449219 196.195312 151.542969 193.164062 C 156.777344 190.074219 161.453125 189.476562 165.074219 189.40625 C 163.769531 187.46875 162.675781 185.375 161.808594 183.144531 C 147.648438 178.1875 145.503906 170.140625 145.503906 165.730469 C 145.503906 161.128906 147.8125 152.777344 163.078125 147.894531 L 165.121094 141.929688 C 167.679688 134.492188 174.691406 129.496094 182.570312 129.496094 L 192.519531 129.496094 C 200.402344 129.496094 207.414062 134.492188 209.96875 141.925781 L 212.023438 147.894531 C 227.28125 152.78125 229.589844 161.128906 229.589844 165.730469 C 229.589844 170.136719 227.449219 178.183594 213.285156 183.140625 C 212.421875 185.367188 211.328125 187.457031 210.023438 189.394531 C 213.402344 189.464844 218.226562 190.03125 223.523438 193.152344 C 228.640625 196.1875 232.648438 200.898438 234.816406 206.425781 L 236.773438 211.394531 C 238.550781 215.9375 237.96875 221.046875 235.207031 225.070312 C 232.445312 229.09375 227.878906 231.496094 222.984375 231.496094 " fill-opacity="1" fill-rule="nonzero"/></g><path fill="#ffffff" d="M 236.105469 211.007812 L 234.148438 206.039062 C 232.128906 200.894531 228.398438 196.511719 223.640625 193.683594 C 218.308594 190.542969 213.476562 190.179688 210.304688 190.179688 C 209.585938 190.179688 208.925781 190.199219 208.339844 190.21875 L 208.21875 190.222656 C 207.878906 190.234375 207.554688 190.242188 207.277344 190.246094 C 209.710938 187.46875 211.632812 184.1875 212.914062 180.609375 C 226.691406 176.058594 228.792969 168.71875 228.792969 164.667969 C 228.792969 160.4375 226.523438 152.804688 211.632812 148.320312 L 209.273438 141.464844 C 206.976562 134.78125 200.671875 130.289062 193.585938 130.289062 L 183.636719 130.289062 C 176.554688 130.289062 170.25 134.78125 167.949219 141.46875 L 165.601562 148.324219 C 150.703125 152.800781 148.429688 160.433594 148.429688 164.667969 C 148.429688 168.722656 150.535156 176.066406 164.308594 180.609375 C 165.59375 184.191406 167.511719 187.46875 169.941406 190.230469 C 169.898438 190.230469 169.859375 190.230469 169.820312 190.230469 C 169.472656 190.230469 169.085938 190.222656 168.71875 190.214844 C 168.15625 190.199219 167.601562 190.191406 167 190.191406 C 163.507812 190.191406 158.828125 190.585938 153.5625 193.695312 C 148.820312 196.519531 145.089844 200.898438 143.054688 206.039062 L 141.09375 211.042969 C 139.554688 215.011719 140.078125 219.472656 142.492188 222.980469 C 144.90625 226.488281 148.894531 228.582031 153.15625 228.582031 L 224.050781 228.582031 C 228.328125 228.582031 232.320312 226.480469 234.734375 222.960938 C 237.148438 219.445312 237.660156 214.976562 236.105469 211.007812 " fill-opacity="1" fill-rule="nonzero"/><path fill="#000000" d="M 208.167969 161.664062 C 208.871094 161.9375 209.335938 162.636719 209.316406 163.386719 C 209.296875 164.019531 209.265625 170.835938 209.210938 172.40625 C 215.851562 170.355469 219.796875 167.4375 219.796875 164.6875 C 219.796875 159.730469 207 154.214844 188.628906 154.214844 C 170.242188 154.214844 157.445312 159.730469 157.445312 164.6875 C 157.445312 167.4375 161.390625 170.355469 168.046875 172.40625 C 167.996094 170.800781 167.960938 164.207031 167.941406 163.386719 C 167.925781 162.636719 168.386719 161.953125 169.089844 161.679688 C 179.453125 157.683594 197.273438 157.527344 208.167969 161.664062 " fill-opacity="1" fill-rule="nonzero"/><path fill="#000000" d="M 203.347656 151.925781 L 200.757812 144.375 C 199.710938 141.335938 196.828125 139.285156 193.601562 139.285156 L 183.636719 139.285156 C 180.414062 139.285156 177.53125 141.335938 176.484375 144.375 L 173.894531 151.925781 C 183.328125 150.234375 193.914062 150.234375 203.347656 151.925781 " fill-opacity="1" fill-rule="nonzero"/><path fill="#000000" d="M 149.503906 214.292969 C 148.507812 216.855469 150.414062 219.605469 153.15625 219.621094 L 155.453125 219.621094 L 155.453125 203.480469 C 153.707031 205.101562 152.316406 207.085938 151.441406 209.320312 L 149.503906 214.292969 " fill-opacity="1" fill-rule="nonzero"/><path fill="#000000" d="M 201.578125 208.519531 L 175.679688 208.519531 C 170.171875 208.519531 165.574219 204.523438 164.683594 199.292969 C 162.695312 199.5 160.738281 200.082031 159.039062 200.933594 L 159.039062 219.621094 L 218.183594 219.621094 L 218.183594 200.953125 C 216.519531 200.097656 214.546875 199.5 212.558594 199.292969 C 211.667969 204.523438 207.085938 208.519531 201.578125 208.519531 " fill-opacity="1" fill-rule="nonzero"/><path fill="#000000" d="M 224.050781 223.175781 L 153.15625 223.175781 C 147.890625 223.175781 144.253906 217.898438 146.15625 212.996094 L 148.113281 208.007812 C 149.707031 203.972656 152.640625 200.542969 156.347656 198.335938 C 162.625 194.632812 167.941406 195.84375 170.839844 195.605469 C 173.621094 195.605469 175.867188 193.367188 175.867188 190.617188 L 175.867188 188.53125 C 172.4375 185.457031 169.863281 181.171875 168.664062 176.269531 C 160.085938 173.960938 153.859375 170.050781 153.859375 164.667969 C 153.859375 159.066406 160.652344 155.035156 169.8125 152.78125 L 173.089844 143.214844 C 174.632812 138.71875 178.867188 135.695312 183.636719 135.695312 L 193.585938 135.695312 C 198.355469 135.695312 202.59375 138.71875 204.136719 143.214844 L 207.429688 152.78125 C 216.570312 155.035156 223.363281 159.046875 223.363281 164.667969 C 223.363281 170.050781 217.121094 173.960938 208.5625 176.269531 C 207.363281 181.171875 204.789062 185.457031 201.359375 188.550781 L 201.359375 190.632812 C 201.359375 193.382812 203.621094 195.621094 206.382812 195.621094 C 209.078125 195.84375 214.496094 194.578125 220.878906 198.335938 C 224.617188 200.558594 227.515625 203.992188 229.09375 208.007812 L 231.050781 212.976562 C 232.96875 217.878906 229.335938 223.175781 224.050781 223.175781 Z M 233.503906 212.023438 L 231.546875 207.050781 C 229.753906 202.484375 226.445312 198.585938 222.21875 196.078125 C 217.476562 193.285156 213.148438 192.964844 210.304688 192.964844 C 209.632812 192.964844 209.003906 192.980469 208.425781 193 C 207.988281 193.011719 207.582031 193.027344 207.214844 193.027344 C 206.992188 193.027344 206.789062 193.019531 206.601562 193.003906 C 206.527344 193 206.453125 192.996094 206.382812 192.996094 C 205.066406 192.996094 203.992188 191.9375 203.992188 190.632812 L 203.992188 189.675781 C 207.058594 186.625 209.398438 182.691406 210.710938 178.386719 C 220.585938 175.425781 226 170.585938 226 164.667969 C 226 158.476562 220.140625 153.507812 209.464844 150.59375 L 206.628906 142.363281 C 204.71875 136.804688 199.476562 133.070312 193.585938 133.070312 L 183.636719 133.070312 C 177.746094 133.070312 172.503906 136.804688 170.59375 142.367188 L 167.777344 150.59375 C 157.085938 153.507812 151.226562 158.472656 151.226562 164.667969 C 151.226562 170.59375 156.636719 175.433594 166.511719 178.386719 C 167.828125 182.699219 170.167969 186.625 173.230469 189.660156 L 173.230469 190.617188 C 173.230469 191.921875 172.160156 192.980469 170.839844 192.980469 C 170.769531 192.980469 170.695312 192.984375 170.625 192.988281 C 170.378906 193.007812 170.109375 193.015625 169.820312 193.015625 C 169.457031 193.015625 169.066406 193.003906 168.652344 192.996094 C 168.136719 192.984375 167.582031 192.972656 167 192.972656 C 163.867188 192.972656 159.671875 193.324219 154.996094 196.085938 C 150.78125 198.59375 147.464844 202.484375 145.65625 207.050781 L 143.699219 212.046875 C 142.492188 215.160156 142.902344 218.65625 144.796875 221.410156 C 146.6875 224.15625 149.8125 225.800781 153.15625 225.800781 L 224.050781 225.800781 C 227.40625 225.800781 230.535156 224.152344 232.429688 221.394531 C 234.320312 218.636719 234.722656 215.132812 233.503906 212.023438 " fill-opacity="1" fill-rule="nonzero"/><path fill="#000000" d="M 188.613281 190.121094 C 197.015625 190.121094 204.648438 182.160156 205.609375 172.390625 C 205.644531 171.84375 205.679688 165.625 205.695312 164.582031 C 195.953125 161.390625 181.097656 161.40625 171.527344 164.601562 C 171.542969 166.101562 171.578125 171.910156 171.613281 172.441406 C 172.574219 182.179688 180.207031 190.136719 188.613281 190.121094 " fill-opacity="1" fill-rule="nonzero"/><path fill="#000000" d="M 225.78125 209.304688 C 224.90625 207.085938 223.519531 205.085938 221.785156 203.460938 L 221.785156 219.605469 L 224.066406 219.605469 C 226.828125 219.605469 228.714844 216.839844 227.738281 214.277344 L 225.78125 209.304688 " fill-opacity="1" fill-rule="nonzero"/><path fill="#000000" d="M 175.660156 204.964844 L 201.5625 204.964844 C 205.113281 204.964844 208.097656 202.507812 208.90625 199.207031 L 206.398438 199.207031 C 201.835938 199.207031 198.097656 195.65625 197.824219 191.179688 C 195.027344 192.785156 191.886719 193.707031 188.628906 193.707031 C 185.351562 193.707031 182.214844 192.785156 179.417969 191.164062 C 179.144531 195.640625 175.402344 199.191406 170.824219 199.207031 L 168.320312 199.207031 C 169.144531 202.507812 172.109375 204.964844 175.660156 204.964844 " fill-opacity="1" fill-rule="nonzero"/><g fill="#000000" fill-opacity="1"><g transform="translate(136.541894, 140.491985)"><g><path d="M 6.046875 -9.578125 L 0.765625 -4.890625 L 1.859375 -1.640625 L 0.015625 -0.015625 L -4.640625 -14.59375 L -2.828125 -16.203125 L 11.03125 -9.765625 L 9.140625 -8.109375 Z M 3.984375 -10.5625 L -2.109375 -13.46875 L 0.03125 -7.0625 Z M 3.984375 -10.5625 "/></g></g></g><g fill="#000000" fill-opacity="1"><g transform="translate(148.653662, 129.945271)"><g><path d="M 6.8125 -11.453125 L 8.640625 -12.421875 L 11.078125 -7.875 C 10.703125 -7.0625 10.15625 -6.273438 9.4375 -5.515625 C 8.726562 -4.753906 7.960938 -4.15625 7.140625 -3.71875 C 5.316406 -2.738281 3.457031 -2.515625 1.5625 -3.046875 C -0.332031 -3.585938 -1.75 -4.738281 -2.6875 -6.5 C -3.632812 -8.257812 -3.796875 -10.078125 -3.171875 -11.953125 C -2.546875 -13.828125 -1.296875 -15.265625 0.578125 -16.265625 C 1.441406 -16.734375 2.375 -17.035156 3.375 -17.171875 C 4.382812 -17.304688 5.34375 -17.269531 6.25 -17.0625 L 5.875 -14.90625 C 4.363281 -15.289062 2.929688 -15.117188 1.578125 -14.390625 C 0.316406 -13.722656 -0.519531 -12.734375 -0.9375 -11.421875 C -1.351562 -10.109375 -1.234375 -8.84375 -0.578125 -7.625 C 0.078125 -6.394531 1.066406 -5.585938 2.390625 -5.203125 C 3.722656 -4.828125 5.019531 -4.976562 6.28125 -5.65625 C 7.226562 -6.15625 8.019531 -6.941406 8.65625 -8.015625 Z M 6.8125 -11.453125 "/></g></g></g><g fill="#000000" fill-opacity="1"><g transform="translate(163.099043, 122.421745)"><g><path d="M 10.359375 -2.75 L 6.78125 -6.1875 C 6.664062 -6.144531 6.46875 -6.085938 6.1875 -6.015625 L 2.984375 -5.15625 L 4.0625 -1.078125 L 1.78125 -0.46875 L -1.8125 -14 L 3.671875 -15.46875 C 5.398438 -15.925781 6.847656 -15.875 8.015625 -15.3125 C 9.179688 -14.757812 9.957031 -13.75 10.34375 -12.28125 C 10.632812 -11.207031 10.632812 -10.234375 10.34375 -9.359375 C 10.0625 -8.484375 9.519531 -7.753906 8.71875 -7.171875 L 12.953125 -3.4375 Z M 2.4375 -7.203125 L 5.640625 -8.0625 C 7.835938 -8.644531 8.691406 -9.84375 8.203125 -11.65625 C 7.742188 -13.40625 6.414062 -13.988281 4.21875 -13.40625 L 1.015625 -12.546875 Z M 2.4375 -7.203125 "/></g></g></g><g fill="#000000" fill-opacity="1"><g transform="translate(178.828669, 118.769224)"><g><path d="M 4.1875 -0.359375 L 1.84375 -0.15625 L 0.625 -14.109375 L 2.96875 -14.3125 Z M 4.1875 -0.359375 "/></g></g></g><g fill="#000000" fill-opacity="1"><g transform="translate(186.698592, 118.015158)"><g><path d="M 12.171875 -11.078125 L 7.734375 -11.375 L 6.9375 0.46875 L 4.578125 0.3125 L 5.375 -11.53125 L 0.984375 -11.828125 L 1.140625 -13.953125 L 12.328125 -13.203125 Z M 12.171875 -11.078125 "/></g></g></g><g fill="#000000" fill-opacity="1"><g transform="translate(199.772024, 118.977342)"><g><path d="M 14.5625 -8.3125 L 7.1875 -10.34375 L 6.1875 -6.6875 L 12.796875 -4.875 L 12.25 -2.84375 L 5.640625 -4.65625 L 4.609375 -0.9375 L 12.203125 1.15625 L 11.640625 3.203125 L 1.78125 0.484375 L 5.5 -13.015625 L 15.140625 -10.359375 Z M 14.5625 -8.3125 "/></g></g></g><g fill="#000000" fill-opacity="1"><g transform="translate(213.762628, 122.936868)"><g><path d="M 13.671875 -8.6875 C 14.535156 -8.226562 15.296875 -7.613281 15.953125 -6.84375 C 16.609375 -6.070312 17.082031 -5.226562 17.375 -4.3125 L 15.359375 -3.4375 C 15.148438 -4.15625 14.8125 -4.816406 14.34375 -5.421875 C 13.882812 -6.023438 13.34375 -6.488281 12.71875 -6.8125 C 11.476562 -7.46875 10.207031 -7.597656 8.90625 -7.203125 C 7.601562 -6.804688 6.632812 -6.003906 6 -4.796875 C 5.351562 -3.566406 5.234375 -2.304688 5.640625 -1.015625 C 6.054688 0.273438 6.882812 1.25 8.125 1.90625 C 9.40625 2.582031 10.816406 2.695312 12.359375 2.25 L 12.875 4.28125 C 11.894531 4.5625 10.882812 4.660156 9.84375 4.578125 C 8.8125 4.503906 7.859375 4.238281 6.984375 3.78125 C 5.171875 2.820312 3.960938 1.414062 3.359375 -0.4375 C 2.765625 -2.300781 2.9375 -4.117188 3.875 -5.890625 C 4.800781 -7.648438 6.207031 -8.796875 8.09375 -9.328125 C 9.976562 -9.867188 11.835938 -9.65625 13.671875 -8.6875 Z M 13.671875 -8.6875 "/></g></g></g><g fill="#000000" fill-opacity="1"><g transform="translate(227.237441, 130.076711)"><g><path d="M 10.53125 9.203125 L 8.75 7.640625 L 12.5625 3.28125 L 6.984375 -1.59375 L 3.171875 2.765625 L 1.390625 1.21875 L 10.59375 -9.328125 L 12.375 -7.78125 L 8.390625 -3.203125 L 13.96875 1.671875 L 17.953125 -2.90625 L 19.734375 -1.34375 Z M 10.53125 9.203125 "/></g></g></g><g fill="#000000" fill-opacity="1"><g transform="translate(103.160474, 172.780625)"><g><path d="M 9.640625 5.828125 C 9.492188 7.140625 9.007812 8.273438 8.1875 9.234375 L 6.765625 8.375 C 7.503906 7.40625 7.925781 6.453125 8.03125 5.515625 C 8.09375 5.003906 8.050781 4.59375 7.90625 4.28125 C 7.769531 3.96875 7.53125 3.789062 7.1875 3.75 C 6.851562 3.707031 6.550781 3.804688 6.28125 4.046875 C 6.007812 4.285156 5.796875 4.601562 5.640625 5 C 5.484375 5.394531 5.289062 5.816406 5.0625 6.265625 C 4.84375 6.710938 4.613281 7.128906 4.375 7.515625 C 4.144531 7.910156 3.8125 8.210938 3.375 8.421875 C 2.945312 8.640625 2.453125 8.710938 1.890625 8.640625 C 1.003906 8.535156 0.335938 8.097656 -0.109375 7.328125 C -0.554688 6.566406 -0.71875 5.625 -0.59375 4.5 C -0.5 3.738281 -0.265625 3.007812 0.109375 2.3125 C 0.484375 1.613281 0.945312 1.03125 1.5 0.5625 L 2.890625 1.46875 C 2.359375 1.914062 1.925781 2.429688 1.59375 3.015625 C 1.269531 3.597656 1.078125 4.164062 1.015625 4.71875 C 0.953125 5.320312 1.003906 5.796875 1.171875 6.140625 C 1.347656 6.492188 1.632812 6.695312 2.03125 6.75 C 2.375 6.789062 2.675781 6.691406 2.9375 6.453125 C 3.207031 6.210938 3.421875 5.894531 3.578125 5.5 C 3.734375 5.101562 3.921875 4.679688 4.140625 4.234375 C 4.359375 3.785156 4.578125 3.363281 4.796875 2.96875 C 5.023438 2.582031 5.347656 2.28125 5.765625 2.0625 C 6.191406 1.84375 6.6875 1.765625 7.25 1.828125 C 8.101562 1.921875 8.75 2.335938 9.1875 3.078125 C 9.625 3.816406 9.773438 4.734375 9.640625 5.828125 Z M 9.640625 5.828125 "/></g></g></g><g fill="#000000" fill-opacity="1"><g transform="translate(101.835028, 184.874497)"><g><path d="M 0.625 12.078125 L 0.546875 10.484375 L 8.125 10.078125 L 1.4375 7.203125 L 1.390625 6.078125 L 7.734375 2.5625 L 0.15625 2.953125 L 0.0625 1.34375 L 10.21875 0.8125 L 10.328125 2.84375 L 3.78125 6.546875 L 10.6875 9.515625 L 10.78125 11.546875 Z M 0.625 12.078125 "/></g></g></g><g fill="#000000" fill-opacity="1"><g transform="translate(103.10543, 201.437318)"><g><path d="M 4.046875 7.171875 L 2.875 2.171875 L 0.40625 1.75 L 0 0.015625 L 10.9375 2.046875 L 11.34375 3.765625 L 2.453125 10.421875 L 2.03125 8.640625 Z M 5.375 6.1875 L 9.34375 3.28125 L 4.5 2.453125 Z M 5.375 6.1875 "/></g></g></g><g fill="#000000" fill-opacity="1"><g transform="translate(106.50942, 214.807208)"><g><path d="M 2.96875 7.1875 L 5.109375 4.296875 C 5.054688 4.210938 4.988281 4.078125 4.90625 3.890625 L 3.984375 1.640625 L 1.15625 2.8125 L 0.515625 1.25 L 9.921875 -2.625 L 11.484375 1.1875 C 11.984375 2.375 12.085938 3.414062 11.796875 4.3125 C 11.515625 5.207031 10.863281 5.863281 9.84375 6.28125 C 9.082031 6.59375 8.375 6.6875 7.71875 6.5625 C 7.070312 6.4375 6.5 6.113281 6 5.59375 L 3.71875 9 Z M 5.421875 1.0625 L 6.34375 3.3125 C 6.976562 4.832031 7.925781 5.332031 9.1875 4.8125 C 10.394531 4.3125 10.679688 3.300781 10.046875 1.78125 L 9.125 -0.46875 Z M 5.421875 1.0625 "/></g></g></g><g fill="#000000" fill-opacity="1"><g transform="translate(111.925539, 227.159778)"><g><path d="M 11.640625 2.703125 L 10 -0.0625 L 2.59375 4.34375 L 1.703125 2.875 L 9.109375 -1.53125 L 7.46875 -4.296875 L 8.796875 -5.09375 L 12.96875 1.90625 Z M 11.640625 2.703125 "/></g></g></g><g fill="#000000" fill-opacity="1"><g transform="translate(117.857296, 236.610624)"><g/></g></g><g fill="#000000" fill-opacity="1"><g transform="translate(121.763515, 241.8101)"><g><path d="M 11.859375 0.15625 L 8.40625 -3.59375 L 6.265625 -1.609375 L 9.390625 1.78125 L 8.25 2.8125 L 5.125 -0.578125 L 2.0625 2.25 L 0.90625 0.984375 L 8.390625 -5.90625 L 13.015625 -0.875 Z M 11.859375 0.15625 "/></g></g></g><g fill="#000000" fill-opacity="1"><g transform="translate(129.549372, 250.07618)"><g><path d="M 7.578125 3.1875 L 3.59375 -0.03125 L 1.390625 1.125 L 0.015625 0.015625 L 9.890625 -5.078125 L 11.265625 -3.96875 L 8.328125 6.734375 L 6.90625 5.578125 Z M 8.046875 1.59375 L 9.390625 -3.140625 L 5.0625 -0.8125 Z M 8.046875 1.59375 "/></g></g></g><g fill="#000000" fill-opacity="1"><g transform="translate(140.431933, 258.554091)"><g><path d="M 6.75 3.859375 L 6.671875 0.265625 C 6.578125 0.234375 6.441406 0.164062 6.265625 0.0625 L 4.15625 -1.140625 L 2.640625 1.515625 L 1.171875 0.671875 L 6.21875 -8.15625 L 9.796875 -6.109375 C 10.910156 -5.472656 11.628906 -4.710938 11.953125 -3.828125 C 12.285156 -2.941406 12.175781 -2.019531 11.625 -1.0625 C 11.21875 -0.363281 10.71875 0.132812 10.125 0.4375 C 9.53125 0.75 8.875 0.851562 8.15625 0.75 L 8.453125 4.84375 Z M 4.9375 -2.484375 L 7.046875 -1.28125 C 8.472656 -0.46875 9.523438 -0.65625 10.203125 -1.84375 C 10.847656 -2.976562 10.457031 -3.953125 9.03125 -4.765625 L 6.921875 -5.96875 Z M 4.9375 -2.484375 "/></g></g></g><g fill="#000000" fill-opacity="1"><g transform="translate(152.385537, 265.219817)"><g><path d="M 11.390625 4.0625 L 9.890625 3.53125 L 12.421875 -3.640625 L 7.21875 1.453125 L 6.15625 1.0625 L 5.328125 -6.171875 L 2.78125 0.984375 L 1.265625 0.453125 L 4.6875 -9.125 L 6.59375 -8.4375 L 7.5 -0.953125 L 12.90625 -6.203125 L 14.8125 -5.515625 Z M 11.390625 4.0625 "/></g></g></g><g fill="#000000" fill-opacity="1"><g transform="translate(167.972048, 270.229469)"><g><path d="M 2.984375 0.609375 L 1.3125 0.265625 L 3.375 -9.703125 L 5.046875 -9.359375 Z M 2.984375 0.609375 "/></g></g></g><g fill="#000000" fill-opacity="1"><g transform="translate(175.097966, 271.744247)"><g><path d="M 10.125 0.78125 L 8.4375 0.65625 L 3.59375 -7.046875 L 3.03125 0.234375 L 1.34375 0.109375 L 2.125 -10.03125 L 3.78125 -9.90625 L 8.65625 -2.1875 L 9.21875 -9.484375 L 10.90625 -9.359375 Z M 10.125 0.78125 "/></g></g></g><g fill="#000000" fill-opacity="1"><g transform="translate(189.694234, 272.578439)"><g><path d="M 7.8125 -5.734375 L 9.296875 -5.875 L 9.640625 -2.140625 C 9.160156 -1.691406 8.570312 -1.3125 7.875 -1 C 7.1875 -0.695312 6.5 -0.515625 5.8125 -0.453125 C 4.320312 -0.316406 3.019531 -0.695312 1.90625 -1.59375 C 0.789062 -2.488281 0.164062 -3.660156 0.03125 -5.109375 C -0.09375 -6.554688 0.316406 -7.816406 1.265625 -8.890625 C 2.210938 -9.960938 3.453125 -10.566406 4.984375 -10.703125 C 5.703125 -10.773438 6.414062 -10.710938 7.125 -10.515625 C 7.84375 -10.328125 8.472656 -10.039062 9.015625 -9.65625 L 8.15625 -8.3125 C 7.257812 -9 6.25 -9.289062 5.125 -9.1875 C 4.101562 -9.09375 3.265625 -8.664062 2.609375 -7.90625 C 1.953125 -7.144531 1.671875 -6.265625 1.765625 -5.265625 C 1.847656 -4.253906 2.28125 -3.4375 3.0625 -2.8125 C 3.851562 -2.1875 4.757812 -1.921875 5.78125 -2.015625 C 6.570312 -2.078125 7.332031 -2.375 8.0625 -2.90625 Z M 7.8125 -5.734375 "/></g></g></g><g fill="#000000" fill-opacity="1"><g transform="translate(203.30661, 270.955977)"><g/></g></g><g fill="#000000" fill-opacity="1"><g transform="translate(209.711983, 269.596853)"><g><path d="M 5.453125 -10.890625 L 0.171875 -9.140625 L 1.03125 -6.546875 L 5.75 -8.125 L 6.234375 -6.65625 L 1.515625 -5.078125 L 2.40625 -2.421875 L 7.84375 -4.234375 L 8.328125 -2.765625 L 1.28125 -0.421875 L -1.921875 -10.078125 L 4.96875 -12.359375 Z M 5.453125 -10.890625 "/></g></g></g><g fill="#000000" fill-opacity="1"><g transform="translate(221.643569, 265.480434)"><g><path d="M 9.859375 -5.265625 L 11.03125 -4.515625 C 10.625 -3.460938 9.976562 -2.703125 9.09375 -2.234375 C 8.539062 -1.953125 7.929688 -1.847656 7.265625 -1.921875 C 6.597656 -1.992188 5.921875 -2.238281 5.234375 -2.65625 C 3.890625 -1.957031 2.53125 -1.804688 1.15625 -2.203125 C -0.21875 -2.609375 -1.242188 -3.453125 -1.921875 -4.734375 C -2.597656 -6.023438 -2.703125 -7.34375 -2.234375 -8.6875 C -1.765625 -10.039062 -0.859375 -11.070312 0.484375 -11.78125 C 1.828125 -12.488281 3.1875 -12.644531 4.5625 -12.25 C 5.9375 -11.863281 6.960938 -11.023438 7.640625 -9.734375 C 8.171875 -8.710938 8.335938 -7.65625 8.140625 -6.5625 C 7.953125 -5.46875 7.453125 -4.515625 6.640625 -3.703125 C 7.453125 -3.410156 8.101562 -3.394531 8.59375 -3.65625 C 9.0625 -3.894531 9.484375 -4.429688 9.859375 -5.265625 Z M -0.59375 -8.296875 C -0.914062 -7.347656 -0.84375 -6.425781 -0.375 -5.53125 C 0.09375 -4.644531 0.804688 -4.054688 1.765625 -3.765625 C 2.734375 -3.484375 3.65625 -3.570312 4.53125 -4.03125 C 5.414062 -4.488281 6.007812 -5.195312 6.3125 -6.15625 C 6.613281 -7.113281 6.53125 -8.035156 6.0625 -8.921875 C 5.59375 -9.816406 4.882812 -10.40625 3.9375 -10.6875 C 3 -10.96875 2.09375 -10.878906 1.21875 -10.421875 C 0.320312 -9.953125 -0.28125 -9.242188 -0.59375 -8.296875 Z M -0.59375 -8.296875 "/></g></g></g><g fill="#000000" fill-opacity="1"><g transform="translate(234.895052, 258.190534)"><g><path d="M 1.734375 -14.15625 L 5.359375 -9.421875 C 6.171875 -8.367188 6.492188 -7.296875 6.328125 -6.203125 C 6.171875 -5.117188 5.546875 -4.15625 4.453125 -3.3125 C 3.367188 -2.476562 2.28125 -2.125 1.1875 -2.25 C 0.101562 -2.382812 -0.84375 -2.976562 -1.65625 -4.03125 L -5.28125 -8.765625 L -3.9375 -9.8125 L -0.3125 -5.078125 C 0.207031 -4.398438 0.8125 -4.015625 1.5 -3.921875 C 2.1875 -3.835938 2.863281 -4.050781 3.53125 -4.5625 C 4.195312 -5.070312 4.570312 -5.660156 4.65625 -6.328125 C 4.738281 -7.003906 4.519531 -7.6875 4 -8.375 L 0.375 -13.109375 Z M 1.734375 -14.15625 "/></g></g></g><g fill="#000000" fill-opacity="1"><g transform="translate(245.729641, 249.393695)"><g><path d="M 2.171875 -2.140625 L 0.953125 -0.9375 L -6.1875 -8.171875 L -4.96875 -9.375 Z M 2.171875 -2.140625 "/></g></g></g><g fill="#000000" fill-opacity="1"><g transform="translate(250.860852, 244.315087)"><g><path d="M -7.09375 -7.40625 L -4.5625 -10.5625 C -3.757812 -11.5625 -2.898438 -12.144531 -1.984375 -12.3125 C -1.078125 -12.488281 -0.195312 -12.226562 0.65625 -11.53125 C 1.5625 -10.8125 2.039062 -9.976562 2.09375 -9.03125 C 2.15625 -8.09375 1.785156 -7.125 0.984375 -6.125 L -0.484375 -4.296875 L 1.90625 -2.375 L 0.84375 -1.046875 Z M -4.828125 -7.765625 L -1.6875 -5.265625 L -0.265625 -7.03125 C 0.765625 -8.3125 0.75 -9.378906 -0.3125 -10.234375 C -1.34375 -11.046875 -2.375 -10.8125 -3.40625 -9.53125 Z M -4.828125 -7.765625 "/></g></g></g><g fill="#000000" fill-opacity="1"><g transform="translate(258.866447, 234.155905)"><g><path d="M 5.828125 -10.59375 L 5.0625 -9.203125 L -1.59375 -12.84375 L 2.578125 -6.890625 L 2.03125 -5.90625 L -5.234375 -6.25 L 1.421875 -2.59375 L 0.640625 -1.171875 L -8.265625 -6.078125 L -7.28125 -7.859375 L 0.25 -7.5625 L -4.046875 -13.71875 L -3.078125 -15.5 Z M 5.828125 -10.59375 "/></g></g></g><g fill="#000000" fill-opacity="1"><g transform="translate(266.467293, 219.437139)"><g><path d="M -5.34375 -10.953125 L -7.15625 -5.6875 L -4.5625 -4.796875 L -2.953125 -9.5 L -1.5 -9 L -3.109375 -4.296875 L -0.46875 -3.375 L 1.390625 -8.796875 L 2.859375 -8.296875 L 0.4375 -1.265625 L -9.171875 -4.578125 L -6.796875 -11.453125 Z M -5.34375 -10.953125 "/></g></g></g><g fill="#000000" fill-opacity="1"><g transform="translate(270.419604, 207.472157)"><g><path d="M 1.75 -10 L 1.453125 -8.34375 L -6.65625 -4.25 L 0.53125 -3 L 0.234375 -1.328125 L -9.78125 -3.078125 L -9.5 -4.71875 L -1.359375 -8.828125 L -8.5625 -10.09375 L -8.265625 -11.75 Z M 1.75 -10 "/></g></g></g><g fill="#000000" fill-opacity="1"><g transform="translate(272.574569, 193.107615)"><g><path d="M -8.453125 -8.453125 L -8.515625 -5.234375 L 0.109375 -5.0625 L 0.0625 -3.34375 L -8.5625 -3.515625 L -8.625 -0.296875 L -10.171875 -0.34375 L -10 -8.5 Z M -8.453125 -8.453125 "/></g></g></g><g fill="#000000" fill-opacity="1"><g transform="translate(272.628986, 181.755208)"><g><path d="M -10.734375 -3.453125 C -10.878906 -4.765625 -10.664062 -5.984375 -10.09375 -7.109375 L -8.515625 -6.59375 C -9.003906 -5.476562 -9.195312 -4.453125 -9.09375 -3.515625 C -9.03125 -3.003906 -8.890625 -2.613281 -8.671875 -2.34375 C -8.460938 -2.070312 -8.1875 -1.957031 -7.84375 -2 C -7.507812 -2.039062 -7.238281 -2.207031 -7.03125 -2.5 C -6.820312 -2.789062 -6.6875 -3.144531 -6.625 -3.5625 C -6.5625 -3.976562 -6.472656 -4.429688 -6.359375 -4.921875 C -6.253906 -5.410156 -6.128906 -5.867188 -5.984375 -6.296875 C -5.847656 -6.734375 -5.59375 -7.101562 -5.21875 -7.40625 C -4.851562 -7.71875 -4.390625 -7.910156 -3.828125 -7.984375 C -2.941406 -8.085938 -2.191406 -7.8125 -1.578125 -7.15625 C -0.960938 -6.507812 -0.59375 -5.625 -0.46875 -4.5 C -0.375 -3.738281 -0.429688 -2.976562 -0.640625 -2.21875 C -0.847656 -1.457031 -1.164062 -0.78125 -1.59375 -0.1875 L -3.140625 -0.78125 C -2.734375 -1.332031 -2.4375 -1.925781 -2.25 -2.5625 C -2.070312 -3.195312 -2.015625 -3.789062 -2.078125 -4.34375 C -2.140625 -4.945312 -2.296875 -5.398438 -2.546875 -5.703125 C -2.804688 -6.015625 -3.132812 -6.144531 -3.53125 -6.09375 C -3.875 -6.050781 -4.144531 -5.882812 -4.34375 -5.59375 C -4.550781 -5.300781 -4.6875 -4.945312 -4.75 -4.53125 C -4.8125 -4.113281 -4.894531 -3.660156 -5 -3.171875 C -5.101562 -2.679688 -5.21875 -2.21875 -5.34375 -1.78125 C -5.476562 -1.351562 -5.722656 -0.984375 -6.078125 -0.671875 C -6.441406 -0.359375 -6.90625 -0.171875 -7.46875 -0.109375 C -8.320312 -0.015625 -9.046875 -0.273438 -9.640625 -0.890625 C -10.234375 -1.503906 -10.597656 -2.359375 -10.734375 -3.453125 Z M -10.734375 -3.453125 "/></g></g></g></svg>